<?xml version="1.0" encoding="utf-8"?>
<!-- Generator: Adobe Illustrator 21.0.0, SVG Export Plug-In . SVG Version: 6.00 Build 0)  -->
<svg version="1.1" id="Layer_1" xmlns="http://www.w3.org/2000/svg" xmlns:xlink="http://www.w3.org/1999/xlink" x="0px" y="0px"
	 viewBox="0 0 145.4 49.5" style="enable-background:new 0 0 145.4 49.5;" xml:space="preserve">
<style type="text/css">
	.st0{fill:#0B9EAF;}
	.st1{fill:#FFC31D;}
	.st2{fill:#F05254;}
	.st3{fill:#FFFFFF;}
	.st4{fill:#CFCECE;}
</style>
<g>
	<g>
		<g>
			<path class="st0" d="M4.4,38.3c-0.2,0-0.4-0.1-0.6-0.3C1.3,34,0,29.4,0,24.7C0,11.1,11.1,0,24.7,0c4.4,0,8.7,1.2,12.5,3.4
				c0.3,0.2,0.4,0.6,0.2,0.9c-0.2,0.3-0.6,0.4-0.9,0.2C33,2.4,28.9,1.3,24.7,1.3C11.8,1.3,1.3,11.8,1.3,24.7c0,4.4,1.3,8.8,3.6,12.5
				C5.1,37.6,5,38,4.7,38.2C4.6,38.2,4.5,38.3,4.4,38.3z"/>
			<path class="st0" d="M9.7,44.2c-0.1,0-0.3,0-0.4-0.1c-1.2-1-2.4-2.1-3.4-3.3c-0.2-0.3-0.2-0.7,0.1-0.9c0.3-0.2,0.7-0.2,0.9,0.1
				c1,1.1,2,2.2,3.2,3.1c0.3,0.2,0.3,0.6,0.1,0.9C10.1,44.1,9.9,44.2,9.7,44.2z"/>
			<path class="st0" d="M24.7,49.5c-4.1,0-8.2-1-11.8-3c-0.3-0.2-0.4-0.6-0.3-0.9c0.2-0.3,0.6-0.4,0.9-0.3c3.4,1.9,7.3,2.9,11.2,2.9
				c12.9,0,23.4-10.5,23.4-23.4c0-4.2-1.1-8.4-3.3-12c-0.2-0.3-0.1-0.7,0.2-0.9c0.3-0.2,0.7-0.1,0.9,0.2c2.3,3.8,3.5,8.2,3.5,12.6
				C49.5,38.4,38.4,49.5,24.7,49.5z"/>
			<path class="st0" d="M43.5,10.3c-0.2,0-0.4-0.1-0.5-0.2c-1-1.2-2.1-2.4-3.4-3.4c-0.3-0.2-0.3-0.6-0.1-0.9
				c0.2-0.3,0.6-0.3,0.9-0.1c1.3,1.1,2.5,2.3,3.6,3.6c0.2,0.3,0.2,0.7-0.1,0.9C43.8,10.2,43.6,10.3,43.5,10.3z"/>
		</g>
		<g>
			<path class="st1" d="M29.3,44.2c-0.3,0-0.6-0.2-0.6-0.5c-0.1-0.4,0.1-0.7,0.5-0.8c1.4-0.3,2.8-0.9,4.1-1.5c0.3-0.2,0.7,0,0.9,0.3
				c0.2,0.3,0,0.7-0.3,0.9c-1.4,0.7-2.9,1.3-4.4,1.6C29.4,44.2,29.3,44.2,29.3,44.2z"/>
			<path class="st1" d="M36.9,40.4c-0.2,0-0.4-0.1-0.5-0.2c-0.2-0.3-0.2-0.7,0.1-0.9c4.4-3.6,6.9-8.8,6.9-14.5
				c0-10.3-8.4-18.7-18.7-18.7c-0.4,0-0.7-0.3-0.7-0.7c0-0.4,0.3-0.7,0.7-0.7c11,0,20,9,20,20c0,6-2.7,11.7-7.4,15.5
				C37.2,40.3,37.1,40.4,36.9,40.4z"/>
			<path class="st1" d="M17.1,7.6c-0.3,0-0.5-0.1-0.6-0.4c-0.1-0.3,0-0.7,0.3-0.9c1.1-0.5,2.2-0.8,3.4-1.1c0.4-0.1,0.7,0.1,0.8,0.5
				c0.1,0.4-0.1,0.7-0.5,0.8c-1.1,0.2-2.1,0.6-3.1,1C17.3,7.6,17.2,7.6,17.1,7.6z"/>
			<path class="st1" d="M24.7,44.7c-11,0-20-9-20-20C4.7,18.2,8,12,13.4,8.3c0.3-0.2,0.7-0.1,0.9,0.2c0.2,0.3,0.1,0.7-0.2,0.9
				c-5,3.5-8,9.2-8,15.4c0,10.3,8.4,18.7,18.7,18.7c0.4,0,0.7,0.3,0.7,0.7S25.1,44.7,24.7,44.7z"/>
		</g>
		<g>
			<path class="st2" d="M24.9,39.8c-2.2,0-4.4-0.5-6.4-1.4c-0.3-0.2-0.5-0.5-0.3-0.9c0.2-0.3,0.5-0.5,0.9-0.3
				c1.8,0.8,3.8,1.3,5.8,1.3c7.7,0,13.9-6.2,13.9-13.9c0-0.4,0.3-0.7,0.7-0.7c0.4,0,0.7,0.3,0.7,0.7C40.1,33,33.3,39.8,24.9,39.8z"
				/>
			<path class="st2" d="M38.7,20.6c-0.3,0-0.5-0.2-0.6-0.4c-0.5-1.4-1.1-2.7-2-3.8c-0.2-0.3-0.2-0.7,0.1-0.9
				c0.3-0.2,0.7-0.2,0.9,0.1c1,1.3,1.7,2.7,2.2,4.2c0.1,0.3-0.1,0.7-0.4,0.8C38.8,20.6,38.7,20.6,38.7,20.6z"/>
			<path class="st2" d="M12,32.1c-0.2,0-0.5-0.1-0.6-0.3c-1.2-2.2-1.8-4.6-1.8-7.1c0-8.4,6.8-15.2,15.2-15.2c3.5,0,6.9,1.2,9.6,3.4
				c0.3,0.2,0.3,0.6,0.1,0.9c-0.2,0.3-0.6,0.3-0.9,0.1c-2.5-2-5.6-3.1-8.8-3.1c-7.7,0-13.9,6.2-13.9,13.9c0,2.3,0.6,4.5,1.6,6.5
				c0.2,0.3,0,0.7-0.3,0.9C12.2,32.1,12.1,32.1,12,32.1z"/>
			<path class="st2" d="M15.8,36.6c-0.1,0-0.3,0-0.4-0.1c-0.8-0.6-1.5-1.3-2.1-2.1c-0.2-0.3-0.2-0.7,0.1-0.9
				c0.3-0.2,0.7-0.2,0.9,0.1c0.6,0.7,1.2,1.3,1.9,1.9c0.3,0.2,0.3,0.6,0.1,0.9C16.2,36.6,16,36.6,15.8,36.6z"/>
			
				<ellipse transform="matrix(8.679298e-02 -0.9962 0.9962 8.679298e-02 -1.7978 47.2479)" class="st2" cx="24.9" cy="24.6" rx="1.5" ry="1.5"/>
		</g>
	</g>
	<g>
		<g>
			<g>
				<path class="st2" d="M78.4,18.3v4.4c0,1.9-0.5,3.4-1.5,4.6c-1,1.2-2.5,1.8-4.6,1.8s-3.6-0.6-4.7-1.8c-1-1.2-1.6-2.8-1.6-4.6
					v-4.4c0-2.1,0.5-3.7,1.6-4.8c1.1-1.1,2.6-1.7,4.6-1.7c2,0,3.5,0.6,4.6,1.7C77.8,14.7,78.4,16.3,78.4,18.3z M76,23v-4.7
					c0-2.8-1.2-4.2-3.7-4.2c-2.6,0-3.8,1.4-3.8,4.2V23c0,1.2,0.3,2.1,1,2.8c0.7,0.7,1.6,1,2.8,1c1.2,0,2.1-0.3,2.7-1
					C75.6,25.1,76,24.2,76,23z"/>
				<path class="st2" d="M83.9,13c1-0.8,2.4-1.1,4.1-1.1c1.1,0,2.1,0.2,3,0.6c1.9,0.9,2.8,2.5,2.8,4.8v11.5h-2.4V17.6
					c0-1.3-0.4-2.2-1.2-2.8s-1.7-0.8-2.8-0.8c-1.1,0-2.2,0.3-3.4,1v13.7h-2.4V12.1h2.3L83.9,13z"/>
				<path class="st2" d="M99.6,24.2c0,1.9,1.1,2.8,3.3,2.8c1.4,0,2.9-0.5,4.5-1.4l0.9,2c-1.7,1-3.5,1.6-5.3,1.6
					c-3.8,0-5.8-1.6-5.8-4.8v-6.8c0-1.8,0.6-3.2,1.7-4.2c1.1-1,2.6-1.5,4.4-1.5s3.3,0.5,4.3,1.5c1,1,1.5,2.3,1.5,4.1v4.5l-9.5,0.5
					V24.2z M106.7,19.8v-2.5c0-1.2-0.4-2-1.1-2.5c-0.7-0.5-1.6-0.7-2.5-0.7c-1,0-1.8,0.3-2.5,0.9c-0.7,0.6-1,1.5-1,2.6v2.6
					L106.7,19.8z"/>
				<path class="st3" d="M113,5.5h1.5v23.2H113V5.5z"/>
				<path class="st3" d="M120,6.8c-0.2-0.2-0.3-0.4-0.3-0.6c0-0.2,0.1-0.5,0.3-0.6c0.2-0.2,0.4-0.3,0.6-0.3c0.2,0,0.5,0.1,0.6,0.3
					c0.2,0.2,0.3,0.4,0.3,0.6c0,0.2-0.1,0.5-0.3,0.6c-0.2,0.2-0.4,0.3-0.6,0.3C120.4,7,120.2,6.9,120,6.8z M119.9,12.1h1.5v16.6
					h-1.5V12.1z"/>
				<path class="st3" d="M132.9,5.3l-0.2,1.3c-0.3,0-0.6-0.1-0.8-0.1c-1,0-1.8,0.3-2.5,0.9c-0.7,0.6-1,1.6-1,3.1v1.6h4.1l-0.6,1.4
					h-3.5v15.2h-1.5V10.5c0-1.1,0.2-2.1,0.6-2.8s0.8-1.4,1.4-1.7c0.9-0.6,1.9-0.8,2.9-0.8C132.1,5.2,132.5,5.2,132.9,5.3z"/>
				<path class="st3" d="M144.6,27.6c-1.7,1-3.5,1.6-5.3,1.6c-3.8,0-5.8-1.6-5.8-4.8v-6.8c0-1.8,0.6-3.2,1.7-4.2
					c1.1-1,2.6-1.5,4.4-1.5c1.8,0,3.3,0.5,4.3,1.5c1,1,1.5,2.3,1.5,4.1v4L135,21.9v2.4c0,1.3,0.4,2.2,1.2,2.7
					c0.8,0.5,1.7,0.8,2.8,0.8c1.6,0,3.3-0.5,5-1.4L144.6,27.6z M135,17.5v3l8.9-0.5v-2.8c0-1.5-0.5-2.5-1.4-3.2
					c-0.9-0.6-2-0.9-3.2-0.9s-2.2,0.4-3.1,1.1C135.4,14.9,135,16,135,17.5z"/>
			</g>
		</g>
		<g>
			<path class="st4" d="M69.3,41.8c-0.5,0.3-1,0.5-1.6,0.5c-1.2,0-1.7-0.5-1.7-1.5v-2c0-0.5,0.2-1,0.5-1.3c0.3-0.3,0.8-0.4,1.3-0.4
				c0.5,0,1,0.1,1.3,0.4c0.3,0.3,0.5,0.7,0.5,1.2V40l-3.1,0.2v0.7c0,0.4,0.1,0.6,0.4,0.8c0.2,0.2,0.5,0.2,0.8,0.2
				c0.5,0,1-0.1,1.5-0.4L69.3,41.8z M66.5,38.8v0.9l2.7-0.1v-0.8c0-0.4-0.1-0.8-0.4-0.9c-0.3-0.2-0.6-0.3-0.9-0.3
				c-0.4,0-0.7,0.1-0.9,0.3C66.6,38,66.5,38.4,66.5,38.8z"/>
			<path class="st4" d="M72.5,37.5c-0.5,0-1,0.1-1.4,0.3v4.3h-0.4v-5h0.4v0.3c0.4-0.2,0.8-0.3,1.4-0.3c0.4,0,0.7,0.1,1,0.2
				c0.6,0.3,0.8,0.7,0.8,1.4v3.4h-0.4v-3.4c0-0.4-0.1-0.6-0.3-0.8c-0.2-0.2-0.4-0.3-0.7-0.4C72.7,37.6,72.6,37.5,72.5,37.5z"/>
			<path class="st4" d="M74.9,37.2h1.2V43c0,0.4-0.1,0.7-0.3,0.9c-0.2,0.2-0.5,0.4-0.8,0.4l-0.1-0.3c0.1,0,0.1,0,0.2-0.1
				c0.1-0.1,0.2-0.1,0.3-0.2c0.2-0.2,0.3-0.5,0.3-0.8v-5.2l-0.5,0L74.9,37.2z M75.7,35.6c-0.1-0.1-0.1-0.1-0.1-0.2
				c0-0.1,0-0.1,0.1-0.2c0.1-0.1,0.1-0.1,0.2-0.1c0.1,0,0.1,0,0.2,0.1c0.1,0.1,0.1,0.1,0.1,0.2c0,0.1,0,0.1-0.1,0.2
				c-0.1,0.1-0.1,0.1-0.2,0.1C75.8,35.7,75.8,35.7,75.7,35.6z"/>
			<path class="st4" d="M77.3,40.4v-1.3c0-0.6,0.2-1.1,0.5-1.4c0.3-0.3,0.8-0.5,1.4-0.5c0.6,0,1,0.2,1.4,0.5
				c0.3,0.3,0.5,0.8,0.5,1.4v1.3c0,0.6-0.2,1-0.5,1.4c-0.3,0.4-0.8,0.5-1.4,0.5s-1.1-0.2-1.4-0.6C77.5,41.4,77.3,40.9,77.3,40.4z
				 M77.8,39v1.4c0,0.4,0.1,0.8,0.4,1c0.2,0.3,0.6,0.4,1,0.4c0.5,0,0.8-0.1,1-0.4s0.4-0.6,0.4-1.1V39c0-0.5-0.1-0.9-0.4-1.2
				c-0.3-0.3-0.6-0.4-1-0.4c-0.4,0-0.8,0.1-1,0.4C77.9,38.1,77.8,38.5,77.8,39z"/>
			<path class="st4" d="M81.6,37.2H82v3.3c0,0.4,0.1,0.8,0.4,1c0.2,0.2,0.6,0.4,1,0.4c0.4,0,0.8-0.1,1.1-0.4c0.3-0.2,0.4-0.6,0.4-1
				v-2c0-0.7,0.1-1.1,0.3-1.2c0.1-0.1,0.2-0.2,0.4-0.2l0.1,0.3c-0.2,0.1-0.3,0.4-0.3,0.8v4.6c0,0.4-0.1,0.7-0.2,1
				c-0.2,0.2-0.4,0.4-0.8,0.5l-0.1-0.3c0.5-0.2,0.7-0.5,0.7-1.1v-1.2c-0.3,0.5-0.8,0.7-1.5,0.7c-0.6,0-1-0.2-1.3-0.5
				c-0.3-0.3-0.5-0.8-0.5-1.4V37.2z"/>
			<path class="st4" d="M89.2,35.2h0.4v2h1.3l-0.2,0.4h-1.1v3.2c0,0.6,0.2,0.9,0.7,1.1l-0.1,0.4c-0.4-0.1-0.6-0.3-0.8-0.5
				c-0.2-0.2-0.2-0.5-0.2-0.9V35.2z"/>
			<path class="st4" d="M92.1,37.9v4.3h-0.4v-7h0.4v2.2c0.4-0.2,0.8-0.3,1.4-0.3c0.4,0,0.7,0.1,1,0.2c0.6,0.3,0.8,0.7,0.8,1.4v3.4
				h-0.4v-3.4c0-0.4-0.1-0.6-0.3-0.9c-0.2-0.3-0.6-0.4-1.1-0.4C93,37.5,92.6,37.6,92.1,37.9z"/>
			<path class="st4" d="M99.6,41.8c-0.5,0.3-1,0.5-1.6,0.5c-1.2,0-1.7-0.5-1.7-1.5v-2c0-0.5,0.2-1,0.5-1.3c0.3-0.3,0.8-0.4,1.3-0.4
				c0.5,0,1,0.1,1.3,0.4c0.3,0.3,0.5,0.7,0.5,1.2V40l-3.1,0.2v0.7c0,0.4,0.1,0.6,0.4,0.8c0.2,0.2,0.5,0.2,0.8,0.2
				c0.5,0,1-0.1,1.5-0.4L99.6,41.8z M96.7,38.8v0.9l2.7-0.1v-0.8c0-0.4-0.1-0.8-0.4-0.9c-0.3-0.2-0.6-0.3-0.9-0.3
				c-0.4,0-0.7,0.1-0.9,0.3C96.9,38,96.7,38.4,96.7,38.8z"/>
			<path class="st4" d="M104.2,37.9v4.3h-0.4v-5h0.4l0,0.3c0.5-0.2,1-0.4,1.5-0.4c0.5,0,0.9,0.2,1.2,0.5c0.6-0.3,1.1-0.5,1.6-0.5
				c0.5,0,0.8,0.2,1.1,0.5c0.3,0.3,0.4,0.7,0.4,1.2v3.4h-0.4v-3.4c0-0.3-0.1-0.6-0.2-0.8c-0.2-0.3-0.5-0.5-1-0.5
				c-0.3,0-0.6,0.1-0.9,0.2l-0.4,0.2c0.1,0.2,0.1,0.5,0.1,0.9v3.4h-0.4v-3.5c0-0.3-0.1-0.6-0.3-0.8c-0.2-0.2-0.5-0.3-1-0.3
				C105.1,37.5,104.6,37.7,104.2,37.9z"/>
			<path class="st4" d="M110.8,40.4v-1.3c0-0.6,0.2-1.1,0.5-1.4c0.3-0.3,0.8-0.5,1.4-0.5s1,0.2,1.4,0.5c0.3,0.3,0.5,0.8,0.5,1.4v1.3
				c0,0.6-0.2,1-0.5,1.4c-0.3,0.4-0.8,0.5-1.4,0.5c-0.6,0-1.1-0.2-1.4-0.6C111,41.4,110.8,40.9,110.8,40.4z M111.2,39v1.4
				c0,0.4,0.1,0.8,0.4,1c0.2,0.3,0.6,0.4,1,0.4c0.5,0,0.8-0.1,1-0.4s0.4-0.6,0.4-1.1V39c0-0.5-0.1-0.9-0.4-1.2
				c-0.3-0.3-0.6-0.4-1-0.4c-0.4,0-0.8,0.1-1,0.4C111.4,38.1,111.2,38.5,111.2,39z"/>
			<path class="st4" d="M116.1,37.9v4.3h-0.4v-5h0.4l0,0.3c0.5-0.2,1-0.4,1.5-0.4c0.5,0,0.9,0.2,1.2,0.5c0.6-0.3,1.1-0.5,1.6-0.5
				c0.5,0,0.8,0.2,1.1,0.5c0.3,0.3,0.4,0.7,0.4,1.2v3.4h-0.4v-3.4c0-0.3-0.1-0.6-0.2-0.8c-0.2-0.3-0.5-0.5-1-0.5
				c-0.3,0-0.6,0.1-0.9,0.2l-0.4,0.2c0.1,0.2,0.1,0.5,0.1,0.9v3.4h-0.4v-3.5c0-0.3-0.1-0.6-0.3-0.8c-0.2-0.2-0.5-0.3-1-0.3
				C116.9,37.5,116.5,37.7,116.1,37.9z"/>
			<path class="st4" d="M125.8,41.8c-0.5,0.3-1,0.5-1.6,0.5c-1.2,0-1.7-0.5-1.7-1.5v-2c0-0.5,0.2-1,0.5-1.3c0.3-0.3,0.8-0.4,1.3-0.4
				c0.5,0,1,0.1,1.3,0.4c0.3,0.3,0.5,0.7,0.5,1.2V40l-3.1,0.2v0.7c0,0.4,0.1,0.6,0.4,0.8c0.2,0.2,0.5,0.2,0.8,0.2
				c0.5,0,1-0.1,1.5-0.4L125.8,41.8z M123,38.8v0.9l2.7-0.1v-0.8c0-0.4-0.1-0.8-0.4-0.9c-0.3-0.2-0.6-0.3-0.9-0.3
				c-0.4,0-0.7,0.1-0.9,0.3C123.1,38,123,38.4,123,38.8z"/>
			<path class="st4" d="M129,37.5c-0.5,0-1,0.1-1.4,0.3v4.3h-0.4v-5h0.4v0.3c0.4-0.2,0.8-0.3,1.4-0.3c0.4,0,0.7,0.1,1,0.2
				c0.6,0.3,0.8,0.7,0.8,1.4v3.4h-0.4v-3.4c0-0.4-0.1-0.6-0.3-0.8s-0.4-0.3-0.7-0.4C129.2,37.6,129.1,37.5,129,37.5z"/>
			<path class="st4" d="M131.9,35.2h0.4v2h1.3l-0.2,0.4h-1.1v3.2c0,0.6,0.2,0.9,0.7,1.1l-0.1,0.4c-0.4-0.1-0.6-0.3-0.8-0.5
				c-0.2-0.2-0.2-0.5-0.2-0.9V35.2z"/>
		</g>
	</g>
</g>
</svg>
